Coordinates
version=1
nRows=14
nColumns=24
inDegrees=yes

Units are S.I. units (second, meters, Newtons, ...)
Angles are in degrees.

endheader
time	pelvis_tilt	pelvis_list	pelvis_rotation	pelvis_tx	pelvis_ty	pelvis_tz	hip_flexion_r	hip_adduction_r	hip_rotation_r	knee_angle_r	ankle_angle_r	subtalar_angle_r	mtp_angle_r	hip_flexion_l	hip_adduction_l	hip_rotation_l	knee_angle_l	ankle_angle_l	subtalar_angle_l	mtp_angle_l	lumbar_extension	lumbar_bending	lumbar_rotation
      2.20500000	     15.22812501	      3.18430404	     -3.76440488	      0.46915426	      0.95144856	      0.23914484	      5.14368717	     -6.14777071	     -2.48653944	    -68.02232628	     19.16685308	      5.99938471	     49.66459765	     -5.88962636	      6.87912674	     -8.74219005	    -18.46445906	     20.88112380	      5.41413774	     17.65255895	    -32.71321515	     -5.02858474	      6.76196182
      2.21000000	     15.41709758	      3.17873118	     -3.74268258	      0.47552160	      0.95221833	      0.23932678	      5.58477662	     -6.16387356	     -2.63460839	    -67.50414140	     19.52642606	      6.17384438	     48.98475148	     -6.81855252	      6.85797512	     -9.01393463	    -17.90493918	     21.16948386	      6.09915187	     17.21056149	    -32.87620760	     -4.96575453	      6.70214007
      2.21500000	     15.64336156	      3.18705036	     -3.50555221	      0.48191113	      0.95311401	      0.23907014	      5.90068651	     -6.23398606	     -3.00857414	    -66.86741537	     19.82408681	      6.30408173	     48.77901621	     -7.78183761	      6.85319650	     -8.88215622	    -17.34926703	     21.29316727	      6.56703439	     17.13271271	    -33.10551738	     -4.78372219	      6.44008563
      2.22000000	     15.85566718	      3.18096164	     -3.29369788	      0.48831765	      0.95382216	      0.23874251	      6.23590674	     -6.29397595	     -3.37716422	    -66.20262617	     20.11939310	      6.24993952	     48.51004803	     -8.71412711	      6.85046000	     -8.85591171	    -16.84006442	     21.52888282	      6.96059291	     16.99318686	    -33.31990817	     -4.58592033	      6.18752725
      2.22500000	     15.88878854	      3.30293354	     -3.24206723	      0.49445936	      0.95410478	      0.23880947	      6.88945999	     -6.43796347	     -3.51365221	    -65.61128123	     20.30156058	      5.97756242	     48.45414707	     -9.42397180	      6.97630116	     -8.85413974	    -16.34648918	     21.64275082	      7.35250607	     16.95960893	    -33.32882017	     -4.62084776	      6.00917909
      2.23000000	     15.97718423	      3.31770385	     -3.27038683	      0.50046905	      0.95443504	      0.23908237	      7.46199511	     -6.44678229	     -3.57171483	    -64.92445785	     20.45362584	      5.88513044	     48.39569757	    -10.19598705	      6.99405731	     -8.97295404	    -15.84559935	     21.84191232	      7.81333469	     16.83783900	    -33.41447571	     -4.60262843	      5.91831482
      2.23500000	     16.13300392	      3.29605768	     -3.20018361	      0.50668098	      0.95490320	      0.23911402	      7.85167992	     -6.47773834	     -3.77639514	    -64.09608720	     20.66670128	      5.98574188	     48.25208521	    -11.10130589	      6.98988849	     -8.93209773	    -15.24837282	     21.96469675	      8.10328391	     16.60264464	    -33.57305719	     -4.47230589	      5.85521172
      2.24000000	     16.26277605	      3.34024291	     -2.97922032	      0.51270233	      0.95519187	      0.23894018	      8.19383278	     -6.62301681	     -4.15390347	    -63.16164940	     20.95599697	      6.20693056	     48.12269184	    -11.92097147	      7.03084982	     -8.64920319	    -14.72943161	     22.12391356	      8.29296839	     16.45987004	    -33.73221000	     -4.33064651	      5.61288689
      2.24500000	     16.49168847	      3.35896462	     -2.78785232	      0.51901532	      0.95557487	      0.23882172	      8.39153955	     -6.74788968	     -4.51098785	    -62.17940490	     21.32031625	      6.52682823	     47.83173582	    -12.90334203	      7.05974707	     -8.40936518	    -14.14281296	     22.24762891	      8.41698609	     16.28499015	    -33.95821298	     -4.18378761	      5.37291866
      2.25000000	     16.63988585	      3.39913003	     -2.69792698	      0.52544245	      0.95576997	      0.23880332	      8.69458159	     -6.86589023	     -4.72981266	    -61.20266659	     21.50385043	      6.57909107	     47.49766184	    -13.81154172	      7.13671135	     -8.18092895	    -13.54273863	     22.32372079	      8.45522480	     16.05167889	    -34.07455995	     -4.11233210	      5.14548218
      2.25500000	     16.73958125	      3.44375237	     -2.58284456	      0.53180281	      0.95585511	      0.23878955	      9.02301824	     -6.97098335	     -4.95293114	    -60.16216192	     21.51650609	      6.57999231	     47.26292112	    -14.63288019	      7.19787873	     -7.93506854	    -12.99257978	     22.42265004	      8.48798429	     15.81996351	    -34.14661311	     -4.04760803	      4.96277190
      2.26000000	     16.92720619	      3.38874721	     -2.44205483	      0.53818461	      0.95601885	      0.23877921	      9.17922809	     -6.94621315	     -5.21398497	    -58.95944013	     21.71068675	      6.57425483	     47.03206381	    -15.50286022	      7.14207779	     -7.73291667	    -12.55662274	     22.55163434	      8.62412203	     15.64946876	    -34.32770263	     -3.85253409	      4.87231226
      2.26500000	     17.15931154	      3.36515913	     -2.26013299	      0.54437236	      0.95620719	      0.23868707	      9.28046050	     -6.96519224	     -5.47129148	    -57.71347121	     21.84175569	      6.59419173	     46.70932086	    -16.44805777	      7.12476887	     -7.36719958	    -12.02414059	     22.67712865	      8.45343674	     15.37744976	    -34.57432812	     -3.66198517	      4.70977977
      2.27000000	     17.35624408	      3.33779068	     -2.03986590	      0.55051358	      0.95632967	      0.23869836	      9.36135739	     -6.95067601	     -5.70832120	    -56.36846171	     21.94812127	      6.62437186	     46.43868507	    -17.30347169	      7.05235547	     -6.99180607	    -11.61568636	     22.81279451	      8.42630355	     15.11779123	    -34.77917612	     -3.47826821	      4.49898499
